<svg xmlns="http://www.w3.org/2000/svg" xmlns:xlink="http://www.w3.org/1999/xlink" contentStyleType="text/css" height="783px" preserveAspectRatio="none" style="width:483px;height:783px;background:#FFFFFF;" version="1.1" viewBox="0 0 483 783" width="483px" zoomAndPan="magnify"><defs/><g><rect fill="#86D7A2" height="40" rx="12.5" ry="12.5" style="stroke:#181818;stroke-width:0.5;" width="76.1035" x="246.5" y="118"/><text fill="#000000" font-family="sans-serif" font-size="14" lengthAdjust="spacing" textLength="66.1035" x="251.5" y="142.8467">CREATED</text><rect fill="#86D7A2" height="40" rx="12.5" ry="12.5" style="stroke:#181818;stroke-width:0.5;" width="50.332" x="259.5" y="374"/><text fill="#000000" font-family="sans-serif" font-size="14" lengthAdjust="spacing" textLength="40.332" x="264.5" y="398.8467">BUILT</text><rect fill="#86D7A2" height="40" rx="12.5" ry="12.5" style="stroke:#181818;stroke-width:0.5;" width="50" x="259.5" y="623"/><text fill="#000000" font-family="sans-serif" font-size="14" lengthAdjust="spacing" textLength="29.7773" x="269.6113" y="647.8467">RAN</text><rect fill="#FF6E6F" height="40" rx="12.5" ry="12.5" style="stroke:#181818;stroke-width:0.5;" width="108.7451" x="7" y="238.5"/><text fill="#000000" font-family="sans-serif" font-size="14" lengthAdjust="spacing" textLength="98.7451" x="12" y="263.3467">FAILED_BUILD</text><rect fill="#FF6E6F" height="40" rx="12.5" ry="12.5" style="stroke:#181818;stroke-width:0.5;" width="96.6318" x="39" y="491"/><text fill="#000000" font-family="sans-serif" font-size="14" lengthAdjust="spacing" textLength="86.6318" x="44" y="515.8467">FAILED_RUN</text><ellipse cx="284.5" cy="16" fill="#222222" rx="10" ry="10" style="stroke:#222222;stroke-width:1;"/><rect fill="#F1F1F1" height="40" rx="12.5" ry="12.5" style="stroke:#181818;stroke-width:0.5;" width="78.0107" x="245.5" y="238.5"/><text fill="#000000" font-family="sans-serif" font-size="14" lengthAdjust="spacing" textLength="68.0107" x="250.5" y="263.3467">BUILDING</text><rect fill="#F1F1F1" height="40" rx="12.5" ry="12.5" style="stroke:#181818;stroke-width:0.5;" width="76.3701" x="246.5" y="491"/><text fill="#000000" font-family="sans-serif" font-size="14" lengthAdjust="spacing" textLength="66.3701" x="251.5" y="515.8467">RUNNING</text><ellipse cx="284.5" cy="766" fill="none" rx="11" ry="11" style="stroke:#222222;stroke-width:1;"/><ellipse cx="284.5" cy="766" fill="#222222" rx="6" ry="6" style="stroke:#222222;stroke-width:1;"/><!--link *start* to CREATED--><g id="link_*start*_CREATED"><path d="M284.5,26.02 C284.5,45.42 284.5,85.5 284.5,111.77 " fill="none" id="*start*-to-CREATED" style="stroke:#181818;stroke-width:1;"/><polygon fill="#181818" points="284.5,117.77,288.5,108.77,284.5,112.77,280.5,108.77,284.5,117.77" style="stroke:#181818;stroke-width:1;"/><text fill="#000000" font-family="sans-serif" font-size="13" lengthAdjust="spacing" textLength="41.5518" x="304.2383" y="69.0669">create</text><text fill="#000000" font-family="sans-serif" font-size="13" lengthAdjust="spacing" textLength="74.896" x="289.6323" y="84.1997">experiment</text></g><!--link CREATED to BUILDING--><g id="link_CREATED_BUILDING"><path d="M284.5,158.04 C284.5,180.02 284.5,209.99 284.5,232.11 " fill="none" id="CREATED-to-BUILDING" style="stroke:#181818;stroke-width:1;"/><polygon fill="#181818" points="284.5,238.11,288.5,229.11,284.5,233.11,280.5,229.11,284.5,238.11" style="stroke:#181818;stroke-width:1;"/><text fill="#000000" font-family="sans-serif" font-size="13" lengthAdjust="spacing" textLength="66.3774" x="285.5" y="201.0669">start build</text></g><!--link BUILDING to BUILT--><g id="link_BUILDING_BUILT"><path d="M284.5,278.63 C284.5,304.01 284.5,342.55 284.5,367.91 " fill="none" id="BUILDING-to-BUILT" style="stroke:#181818;stroke-width:1;"/><polygon fill="#181818" points="284.5,373.91,288.5,364.91,284.5,368.91,280.5,364.91,284.5,373.91" style="stroke:#181818;stroke-width:1;"/><text fill="#000000" font-family="sans-serif" font-size="13" lengthAdjust="spacing" textLength="31.9668" x="304.0034" y="325.0669">build</text><text fill="#000000" font-family="sans-serif" font-size="13" lengthAdjust="spacing" textLength="68.9736" x="285.5" y="340.1997">completed</text></g><!--link CREATED to BUILT--><g id="link_CREATED_BUILT"><path d="M322.68,154.12 C337.18,161.94 352.19,173.04 360.5,188 C387.27,236.18 362.06,256.88 362.5,312 C362.61,326.22 369.38,331.55 362.5,344 C351.36,364.15 333.6192,374.8583 315.3792,382.3583 " fill="none" id="CREATED-to-BUILT" style="stroke:#181818;stroke-width:1;"/><polygon fill="#181818" points="309.83,384.64,319.675,384.9169,314.4543,382.7385,316.6326,377.5179,309.83,384.64" style="stroke:#181818;stroke-width:1;"/><text fill="#000000" font-family="sans-serif" font-size="13" lengthAdjust="spacing" textLength="16.1929" x="416.2769" y="248.0669">no</text><text fill="#000000" font-family="monospace" font-size="13" lengthAdjust="spacing" textLength="101.7466" x="373.5" y="263.1997">build_command</text><text fill="#000000" font-family="sans-serif" font-size="13" lengthAdjust="spacing" textLength="48.9277" x="399.9094" y="278.3325">defined</text></g><!--link BUILT to RUNNING--><g id="link_BUILT_RUNNING"><path d="M284.5,414.25 C284.5,435.48 284.5,463.44 284.5,484.69 " fill="none" id="BUILT-to-RUNNING" style="stroke:#181818;stroke-width:1;"/><polygon fill="#181818" points="284.5,490.69,288.5,481.69,284.5,485.69,280.5,481.69,284.5,490.69" style="stroke:#181818;stroke-width:1;"/><text fill="#000000" font-family="sans-serif" font-size="13" lengthAdjust="spacing" textLength="56.2339" x="285.5" y="457.0669">start run</text></g><!--link RUNNING to RAN--><g id="link_RUNNING_RAN"><path d="M284.5,531.18 C284.5,555.76 284.5,592.12 284.5,616.74 " fill="none" id="RUNNING-to-RAN" style="stroke:#181818;stroke-width:1;"/><polygon fill="#181818" points="284.5,622.74,288.5,613.74,284.5,617.74,280.5,613.74,284.5,622.74" style="stroke:#181818;stroke-width:1;"/><text fill="#000000" font-family="sans-serif" font-size="13" lengthAdjust="spacing" textLength="21.8232" x="309.0752" y="574.0669">run</text><text fill="#000000" font-family="sans-serif" font-size="13" lengthAdjust="spacing" textLength="68.9736" x="285.5" y="589.1997">completed</text></g><!--link RAN to *end*--><g id="link_RAN_*end*"><path d="M284.5,663.17 C284.5,689.16 284.5,728.64 284.5,748.84 " fill="none" id="RAN-to-*end*" style="stroke:#181818;stroke-width:1;"/><polygon fill="#181818" points="284.5,754.84,288.5,745.84,284.5,749.84,280.5,745.84,284.5,754.84" style="stroke:#181818;stroke-width:1;"/><text fill="#000000" font-family="sans-serif" font-size="13" lengthAdjust="spacing" textLength="48.001" x="301.0137" y="706.0669">archive</text><text fill="#000000" font-family="sans-serif" font-size="13" lengthAdjust="spacing" textLength="74.896" x="289.6323" y="721.1997">experiment</text></g><!--link FAILED_BUILD to BUILDING--><g id="link_FAILED_BUILD_BUILDING"><path d="M116.14,274.63 C123.36,276.22 130.69,277.59 137.75,278.5 C175.66,283.39 186.01,284.55 223.75,278.5 C230.88,277.36 232.5524,277.2319 239.6624,275.1019 " fill="none" id="FAILED_BUILD-to-BUILDING" style="stroke:#181818;stroke-width:1;"/><polygon fill="#181818" points="245.41,273.38,235.6407,272.131,240.6203,274.8149,237.9365,279.7945,245.41,273.38" style="stroke:#181818;stroke-width:1;"/><text fill="#000000" font-family="sans-serif" font-size="13" lengthAdjust="spacing" textLength="84.4111" x="138.75" y="274.5669">re-start build</text></g><!--link BUILDING to FAILED_BUILD--><g id="link_BUILDING_FAILED_BUILD"><path d="M245.2,258.5 C209.34,258.5 162.02,258.5 122.05,258.5 " fill="none" id="BUILDING-to-FAILED_BUILD" style="stroke:#181818;stroke-width:1;"/><polygon fill="#181818" points="116.05,258.5,125.05,262.5,121.05,258.5,125.05,254.5,116.05,258.5" style="stroke:#181818;stroke-width:1;"/><text fill="#000000" font-family="sans-serif" font-size="13" lengthAdjust="spacing" textLength="72.1157" x="134.25" y="236.5669">build failed</text><text fill="#000000" font-family="sans-serif" font-size="13" font-style="italic" lengthAdjust="spacing" textLength="13.2983" x="210.498" y="236.5669">or</text><text fill="#000000" font-family="sans-serif" font-size="13" lengthAdjust="spacing" textLength="4.1323" x="223.7964" y="236.5669">&#160;</text><text fill="#000000" font-family="sans-serif" font-size="13" lengthAdjust="spacing" textLength="70.7954" x="145.6917" y="251.6997">stop called</text></g><!--link FAILED_RUN to RUNNING--><g id="link_FAILED_RUN_RUNNING"><path d="M136.32,527.58 C141.98,528.98 147.7,530.18 153.25,531 C186.66,535.97 195.98,536.84 229.25,531 C234.88,530.01 234.9624,530.2873 240.6024,528.5273 " fill="none" id="FAILED_RUN-to-RUNNING" style="stroke:#181818;stroke-width:1;"/><polygon fill="#181818" points="246.33,526.74,236.547,525.6026,241.557,528.2294,238.9302,533.2394,246.33,526.74" style="stroke:#181818;stroke-width:1;"/><text fill="#000000" font-family="sans-serif" font-size="13" lengthAdjust="spacing" textLength="74.2676" x="154.25" y="527.0669">re-start run</text></g><!--link RUNNING to FAILED_RUN--><g id="link_RUNNING_FAILED_RUN"><path d="M246.23,511 C214.82,511 176.15,511 142.2,511 " fill="none" id="RUNNING-to-FAILED_RUN" style="stroke:#181818;stroke-width:1;"/><polygon fill="#181818" points="136.2,511,145.2,515,141.2,511,145.2,507,136.2,511" style="stroke:#181818;stroke-width:1;"/><text fill="#000000" font-family="sans-serif" font-size="13" lengthAdjust="spacing" textLength="61.9722" x="149.75" y="489.0669">run failed</text><text fill="#000000" font-family="sans-serif" font-size="13" font-style="italic" lengthAdjust="spacing" textLength="13.2983" x="215.8545" y="489.0669">or</text><text fill="#000000" font-family="sans-serif" font-size="13" lengthAdjust="spacing" textLength="4.1323" x="229.1528" y="489.0669">&#160;</text><text fill="#000000" font-family="sans-serif" font-size="13" lengthAdjust="spacing" textLength="70.7954" x="156.1199" y="504.1997">stop called</text></g><!--SRC=[VL5DQuD04BtlhnZihI123xPu46nZYn0yY3d54BRkI9RghAoRVlpxhaOJbTBhUs_UcpTpaW81czRyWC2krB8rKX5ZdU46uIMBeppUmDsJBnxvmuW-xv9jliAoA5qXhr6oZJV7NcmDgif7lrfIsIwz4cn_Vm1Ng2zomoasW5AZrHS4-DsYbWsIOTDEatW8IDAt0AovDl1-bhLW4xgGvS65BQXKJLkZGJ7P3R8zAStfut2Jaoh8SOQXevrfE0d7AKXW9GalAVarmlP9PuleCx4HkacYDEY9-GRzwIRUNY40hikJ_5pLPejxBdfhTF-k7YwUC9Q7YiiQ1NYUqfu71NL6jL3ose9izfbveMl2ebCuU-JGwb_hNm00]--></g></svg>