<svg xmlns="http://www.w3.org/2000/svg" xmlns:xlink="http://www.w3.org/1999/xlink" contentStyleType="text/css" height="667px" preserveAspectRatio="none" style="width:1059px;height:667px;background:#FFFFFF;" version="1.1" viewBox="0 0 1059 667" width="1059px" zoomAndPan="magnify"><defs/><g><line style="stroke:#181818;stroke-width:1.5;" x1="82.8037" x2="82.8037" y1="63.9688" y2="83.9688"/><rect fill="#E5A2DF" height="33.9688" style="stroke:#181818;stroke-width:1.5;" width="145.6074" x="10" y="83.9688"/><text fill="#000000" font-family="sans-serif" font-size="12" lengthAdjust="spacing" textLength="125.6074" x="20" y="105.1074">System Specification</text><line style="stroke:#181818;stroke-width:1.5;" x1="82.8037" x2="92.8037" y1="156.9063" y2="156.9063"/><rect fill="#F1F1F1" height="47.9375" style="stroke:#181818;stroke-width:1.5;" width="126.6699" x="92.8037" y="132.9375"/><text fill="#000000" font-family="sans-serif" font-size="12" lengthAdjust="spacing" textLength="106.6699" x="102.8037" y="154.0762">System Definition</text><text fill="#000000" font-family="sans-serif" font-size="12" lengthAdjust="spacing" textLength="51.1816" x="133.3193" y="168.0449">(SysDef)</text><line style="stroke:#181818;stroke-width:1.5;" x1="156.1387" x2="166.1387" y1="212.8594" y2="212.8594"/><rect fill="#F1F1F1" height="33.9688" style="stroke:#181818;stroke-width:1.5;" width="89.2227" x="166.1387" y="195.875"/><text fill="#000000" font-family="sans-serif" font-size="12" lengthAdjust="spacing" textLength="69.2227" x="176.1387" y="217.0137">Parameters</text><line style="stroke:#181818;stroke-width:1.5;" x1="210.75" x2="220.75" y1="261.8281" y2="261.8281"/><rect fill="#F1F1F1" height="33.9688" style="stroke:#181818;stroke-width:1.5;" width="127.7598" x="220.75" y="244.8438"/><text fill="#000000" font-family="sans-serif" font-size="12" lengthAdjust="spacing" textLength="107.7598" x="230.75" y="265.9824">Simple Parameter</text><line style="stroke:#181818;stroke-width:1.5;" x1="210.75" x2="220.75" y1="310.7969" y2="310.7969"/><rect fill="#F1F1F1" height="33.9688" style="stroke:#181818;stroke-width:1.5;" width="107.7383" x="220.75" y="293.8125"/><text fill="#000000" font-family="sans-serif" font-size="12" lengthAdjust="spacing" textLength="87.7383" x="230.75" y="314.9512">File Parameter</text><line style="stroke:#181818;stroke-width:1.5;" x1="210.75" x2="220.75" y1="359.7656" y2="359.7656"/><rect fill="#F1F1F1" height="33.9688" style="stroke:#181818;stroke-width:1.5;" width="125.082" x="220.75" y="342.7813"/><text fill="#000000" font-family="sans-serif" font-size="12" lengthAdjust="spacing" textLength="105.082" x="230.75" y="363.9199">Range Parameter</text><line style="stroke:#181818;stroke-width:1.5;" x1="210.75" x2="220.75" y1="408.7344" y2="408.7344"/><rect fill="#F1F1F1" height="33.9688" style="stroke:#181818;stroke-width:1.5;" width="121.2676" x="220.75" y="391.75"/><text fill="#000000" font-family="sans-serif" font-size="12" lengthAdjust="spacing" textLength="101.2676" x="230.75" y="412.8887">Enum Parameter</text><line style="stroke:#181818;stroke-width:1.5;" x1="210.75" x2="210.75" y1="229.8438" y2="408.7344"/><line style="stroke:#181818;stroke-width:1.5;" x1="156.1387" x2="166.1387" y1="457.7031" y2="457.7031"/><rect fill="#F1F1F1" height="33.9688" style="stroke:#181818;stroke-width:1.5;" width="100.5137" x="166.1387" y="440.7188"/><text fill="#000000" font-family="sans-serif" font-size="12" lengthAdjust="spacing" textLength="80.5137" x="176.1387" y="461.8574">Result Object</text><line style="stroke:#181818;stroke-width:1.5;" x1="156.1387" x2="166.1387" y1="506.6719" y2="506.6719"/><rect fill="#F1F1F1" height="33.9688" style="stroke:#181818;stroke-width:1.5;" width="161.0703" x="166.1387" y="489.6875"/><text fill="#000000" font-family="sans-serif" font-size="12" lengthAdjust="spacing" textLength="141.0703" x="176.1387" y="510.8262">System Documentation</text><line style="stroke:#181818;stroke-width:1.5;" x1="156.1387" x2="156.1387" y1="180.875" y2="506.6719"/><line style="stroke:#181818;stroke-width:1.5;" x1="82.8037" x2="82.8037" y1="117.9375" y2="156.9063"/><line style="stroke:#181818;stroke-width:1.5;" x1="441.8291" x2="441.8291" y1="63.9688" y2="83.9688"/><rect fill="#9DC9FF" height="33.9688" style="stroke:#181818;stroke-width:1.5;" width="146.6387" x="368.5098" y="83.9688"/><text fill="#000000" font-family="sans-serif" font-size="12" lengthAdjust="spacing" textLength="126.6387" x="378.5098" y="105.1074">Experiment Handling</text><line style="stroke:#181818;stroke-width:1.5;" x1="441.8291" x2="451.8291" y1="156.9063" y2="156.9063"/><rect fill="#F1F1F1" height="47.9375" style="stroke:#181818;stroke-width:1.5;" width="149.9434" x="451.8291" y="132.9375"/><text fill="#000000" font-family="sans-serif" font-size="12" lengthAdjust="spacing" textLength="129.9434" x="461.8291" y="154.0762">System Configuration</text><text fill="#000000" font-family="sans-serif" font-size="12" lengthAdjust="spacing" textLength="50.5547" x="492.3447" y="168.0449">(SysCfg)</text><line style="stroke:#181818;stroke-width:1.5;" x1="526.8008" x2="536.8008" y1="212.8594" y2="212.8594"/><rect fill="#F1F1F1" height="33.9688" style="stroke:#181818;stroke-width:1.5;" width="129.793" x="536.8008" y="195.875"/><text fill="#000000" font-family="sans-serif" font-size="12" lengthAdjust="spacing" textLength="109.793" x="546.8008" y="217.0137">System Reference</text><line style="stroke:#181818;stroke-width:1.5;" x1="526.8008" x2="536.8008" y1="261.8281" y2="261.8281"/><rect fill="#F1F1F1" height="33.9688" style="stroke:#181818;stroke-width:1.5;" width="158.3926" x="536.8008" y="244.8438"/><text fill="#000000" font-family="sans-serif" font-size="12" lengthAdjust="spacing" textLength="138.3926" x="546.8008" y="265.9824">Remote File Parameter</text><line style="stroke:#181818;stroke-width:1.5;" x1="526.8008" x2="526.8008" y1="180.875" y2="261.8281"/><line style="stroke:#181818;stroke-width:1.5;" x1="441.8291" x2="451.8291" y1="310.7969" y2="310.7969"/><rect fill="#F1F1F1" height="33.9688" style="stroke:#181818;stroke-width:1.5;" width="153.1016" x="451.8291" y="293.8125"/><text fill="#000000" font-family="sans-serif" font-size="12" lengthAdjust="spacing" textLength="133.1016" x="461.8291" y="314.9512">Session Creation Data</text><line style="stroke:#181818;stroke-width:1.5;" x1="441.8291" x2="451.8291" y1="359.7656" y2="359.7656"/><rect fill="#F1F1F1" height="33.9688" style="stroke:#181818;stroke-width:1.5;" width="139.2734" x="451.8291" y="342.7813"/><text fill="#000000" font-family="sans-serif" font-size="12" lengthAdjust="spacing" textLength="119.2734" x="461.8291" y="363.9199">Session Information</text><line style="stroke:#181818;stroke-width:1.5;" x1="441.8291" x2="451.8291" y1="408.7344" y2="408.7344"/><rect fill="#F1F1F1" height="33.9688" style="stroke:#181818;stroke-width:1.5;" width="99.6699" x="451.8291" y="391.75"/><text fill="#000000" font-family="sans-serif" font-size="12" lengthAdjust="spacing" textLength="79.6699" x="461.8291" y="412.8887">Result Status</text><line style="stroke:#181818;stroke-width:1.5;" x1="441.8291" x2="441.8291" y1="117.9375" y2="408.7344"/><line style="stroke:#181818;stroke-width:1.5;" x1="771.7021" x2="771.7021" y1="63.9688" y2="83.9688"/><rect fill="#8DD2CD" height="33.9688" style="stroke:#181818;stroke-width:1.5;" width="113.0176" x="715.1934" y="83.9688"/><text fill="#000000" font-family="sans-serif" font-size="12" lengthAdjust="spacing" textLength="93.0176" x="725.1934" y="105.1074">Results Objects</text><line style="stroke:#181818;stroke-width:1.5;" x1="771.7021" x2="781.7021" y1="149.9219" y2="149.9219"/><rect fill="#F1F1F1" height="33.9688" style="stroke:#181818;stroke-width:1.5;" width="114.3008" x="781.7021" y="132.9375"/><text fill="#000000" font-family="sans-serif" font-size="12" lengthAdjust="spacing" textLength="94.3008" x="791.7021" y="154.0762">Standard Types</text><line style="stroke:#181818;stroke-width:1.5;" x1="838.8525" x2="848.8525" y1="198.8906" y2="198.8906"/><rect fill="#F1F1F1" height="33.9688" style="stroke:#181818;stroke-width:1.5;" width="200.0645" x="848.8525" y="181.9063"/><text fill="#000000" font-family="sans-serif" font-size="12" lengthAdjust="spacing" textLength="180.0645" x="858.8525" y="203.0449">Waveform Trace (VCD or FST)</text><line style="stroke:#181818;stroke-width:1.5;" x1="838.8525" x2="848.8525" y1="247.8594" y2="247.8594"/><rect fill="#F1F1F1" height="33.9688" style="stroke:#181818;stroke-width:1.5;" width="134.498" x="848.8525" y="230.875"/><text fill="#000000" font-family="sans-serif" font-size="12" lengthAdjust="spacing" textLength="114.498" x="858.8525" y="252.0137">Test Results (JUnit)</text><line style="stroke:#181818;stroke-width:1.5;" x1="838.8525" x2="848.8525" y1="296.8281" y2="296.8281"/><rect fill="#F1F1F1" height="33.9688" style="stroke:#181818;stroke-width:1.5;" width="167.6973" x="848.8525" y="279.8438"/><text fill="#000000" font-family="sans-serif" font-size="12" lengthAdjust="spacing" textLength="147.6973" x="858.8525" y="300.9824">Function Profile (GPROF)</text><line style="stroke:#181818;stroke-width:1.5;" x1="838.8525" x2="838.8525" y1="166.9063" y2="296.8281"/><line style="stroke:#181818;stroke-width:1.5;" x1="771.7021" x2="781.7021" y1="345.7969" y2="345.7969"/><rect fill="#F1F1F1" height="33.9688" style="stroke:#181818;stroke-width:1.5;" width="111.9512" x="781.7021" y="328.8125"/><text fill="#000000" font-family="sans-serif" font-size="12" lengthAdjust="spacing" textLength="91.9512" x="791.7021" y="349.9512">SUNRISE Types</text><line style="stroke:#181818;stroke-width:1.5;" x1="837.6777" x2="847.6777" y1="394.7656" y2="394.7656"/><rect fill="#F1F1F1" height="33.9688" style="stroke:#181818;stroke-width:1.5;" width="128.5332" x="847.6777" y="377.7813"/><text fill="#000000" font-family="sans-serif" font-size="12" lengthAdjust="spacing" textLength="108.5332" x="857.6777" y="398.9199">Core Performance</text><line style="stroke:#181818;stroke-width:1.5;" x1="837.6777" x2="847.6777" y1="443.7344" y2="443.7344"/><rect fill="#F1F1F1" height="33.9688" style="stroke:#181818;stroke-width:1.5;" width="123.9863" x="847.6777" y="426.75"/><text fill="#000000" font-family="sans-serif" font-size="12" lengthAdjust="spacing" textLength="103.9863" x="857.6777" y="447.8887">Simulation speed</text><line style="stroke:#181818;stroke-width:1.5;" x1="837.6777" x2="847.6777" y1="492.7031" y2="492.7031"/><rect fill="#F1F1F1" height="33.9688" style="stroke:#181818;stroke-width:1.5;" width="150.1309" x="847.6777" y="475.7188"/><text fill="#000000" font-family="sans-serif" font-size="12" lengthAdjust="spacing" textLength="130.1309" x="857.6777" y="496.8574">Function Profile Table</text><line style="stroke:#181818;stroke-width:1.5;" x1="837.6777" x2="837.6777" y1="362.7813" y2="492.7031"/><line style="stroke:#181818;stroke-width:1.5;" x1="771.7021" x2="781.7021" y1="541.6719" y2="541.6719"/><rect fill="#F1F1F1" height="33.9688" style="stroke:#181818;stroke-width:1.5;" width="97.5547" x="781.7021" y="524.6875"/><text fill="#000000" font-family="sans-serif" font-size="12" lengthAdjust="spacing" textLength="77.5547" x="791.7021" y="545.8262">Generic Files</text><line style="stroke:#181818;stroke-width:1.5;" x1="830.4795" x2="840.4795" y1="590.6406" y2="590.6406"/><rect fill="#F1F1F1" height="33.9688" style="stroke:#181818;stroke-width:1.5;" width="46.5195" x="840.4795" y="573.6563"/><text fill="#000000" font-family="sans-serif" font-size="12" lengthAdjust="spacing" textLength="26.5195" x="850.4795" y="594.7949">Text</text><line style="stroke:#181818;stroke-width:1.5;" x1="830.4795" x2="840.4795" y1="639.6094" y2="639.6094"/><rect fill="#F1F1F1" height="33.9688" style="stroke:#181818;stroke-width:1.5;" width="58.5605" x="840.4795" y="622.625"/><text fill="#000000" font-family="sans-serif" font-size="12" lengthAdjust="spacing" textLength="38.5605" x="850.4795" y="643.7637">Binary</text><line style="stroke:#181818;stroke-width:1.5;" x1="830.4795" x2="830.4795" y1="558.6563" y2="639.6094"/><line style="stroke:#181818;stroke-width:1.5;" x1="771.7021" x2="771.7021" y1="117.9375" y2="541.6719"/><line style="stroke:#181818;stroke-width:1.5;" x1="82.8037" x2="771.7021" y1="63.9688" y2="63.9688"/><rect fill="#86D7A2" height="33.9688" style="stroke:#181818;stroke-width:1.5;" width="170.6152" x="341.9453" y="10"/><text fill="#000000" font-family="sans-serif" font-size="12" lengthAdjust="spacing" textLength="150.6152" x="351.9453" y="31.1387">Data formats of SUNRISE</text><line style="stroke:#181818;stroke-width:1.5;" x1="427.2529" x2="427.2529" y1="43.9688" y2="63.9688"/><!--SRC=[TL9DR-8m5BpdLpof5q1gLH1bAQUgWNJBGa59O0yj1nE_8AyIEx8TjlpxFkUZfRljCVEU9pDlvivOfktVlV5wpnVZ4V_11ZkOCiiWLJfdre1A8TeyXO_HpElH3jwm0Kzt49sCnHoY0XEHYeHPeIGjzDh155CXXKDVv8lj44f8rstqOCqqoz6YDjKtlH5vaU47ti21-08CcJpyZyvacVy3GeYcp2oizdymiJNKYbD9cQEqhUhdYrkUtAPaQ_PQe1Pk1Z-Pv9cGXtDNlfAfE9IQdHlpqqFt4ts8AMgK2ROwScNn2pSGeJ541Bx6Yh6w_AV9ewnpQA_RU8f8UcagvMFE1mdVDHFJs3KrYoKFJ7E8JmNMnuRVx8YE4sBD4eJErf-2qX14SMCYHcFVsJhp3QNOJ89I9fNCjLQfSzDvM8Uhe5l_gox9-QzyfSanwih2-paex3AhxPe2aN_37RDzLhs01vIKIL8TqBGQNvj4xuLa-kJTeUIknTuwOz9kbWiuKhqSN_zgS3qONeqxWHRmf8xGlu7-U38SJeOZy6Snk77N8oiBCAhKT1CkZDLYNpezNM_EZWp2KbggnGHM1Shvz5SBKF6EGYlf6kFDjykFXT7mybvGKgX92MoN7lMVkUncCb6SUZM1JHnSZhq55Rfa1-96wVcAUFM9Pj4R]--></g></svg>