<?xml version="1.0" encoding="UTF-8"?>
<!DOCTYPE svg PUBLIC "-//W3C//DTD SVG 1.1//EN" "http://www.w3.org/Graphics/SVG/1.1/DTD/svg11.dtd">
<svg xmlns="http://www.w3.org/2000/svg" style="background: transparent; background-color: transparent; color-scheme: light dark;" xmlns:xlink="http://www.w3.org/1999/xlink" version="1.1" width="827px" height="148px" viewBox="-0.5 -0.5 827 148"><defs/><g><g data-cell-id="0"><g data-cell-id="1"><g data-cell-id="w8ue0g9CLGxzd9xP0na4-18"><g><rect x="90" y="21" width="620" height="125" rx="8.75" ry="8.75" fill="#e8e8e8" stroke="#000000" pointer-events="all" style="fill: light-dark(rgb(232, 232, 232), rgb(38, 38, 38)); stroke: light-dark(rgb(0, 0, 0), rgb(255, 255, 255));"/></g></g><g data-cell-id="w8ue0g9CLGxzd9xP0na4-10"><g><path d="M 320 106 L 353.63 106" fill="none" stroke="#000000" stroke-miterlimit="10" pointer-events="stroke" style="stroke: light-dark(rgb(0, 0, 0), rgb(255, 255, 255));"/><path d="M 358.88 106 L 351.88 109.5 L 353.63 106 L 351.88 102.5 Z" fill="#000000" stroke="#000000" stroke-miterlimit="10" pointer-events="all" style="fill: light-dark(rgb(0, 0, 0), rgb(255, 255, 255)); stroke: light-dark(rgb(0, 0, 0), rgb(255, 255, 255));"/></g></g><g data-cell-id="w8ue0g9CLGxzd9xP0na4-1"><g><rect x="245" y="86" width="75" height="40" rx="6" ry="6" fill="#ffffff" stroke="#000000" pointer-events="all" style="fill: light-dark(#ffffff, var(--ge-dark-color, #121212)); stroke: light-dark(rgb(0, 0, 0), rgb(255, 255, 255));"/></g><g><g fill="#000000" font-family="&quot;Helvetica&quot;" text-anchor="middle" font-size="13px" style="fill: light-dark(rgb(0, 0, 0), rgb(255, 255, 255));"><text x="282" y="111">Build</text></g></g></g><g data-cell-id="w8ue0g9CLGxzd9xP0na4-8"><g><path d="M 75 106 L 118.63 106" fill="none" stroke="#000000" stroke-miterlimit="10" pointer-events="stroke" style="stroke: light-dark(rgb(0, 0, 0), rgb(255, 255, 255));"/><path d="M 123.88 106 L 116.88 109.5 L 118.63 106 L 116.88 102.5 Z" fill="#000000" stroke="#000000" stroke-miterlimit="10" pointer-events="all" style="fill: light-dark(rgb(0, 0, 0), rgb(255, 255, 255)); stroke: light-dark(rgb(0, 0, 0), rgb(255, 255, 255));"/></g></g><g data-cell-id="w8ue0g9CLGxzd9xP0na4-2"><g><rect x="0" y="86" width="75" height="40" rx="6" ry="6" fill="#ffffff" stroke="#000000" pointer-events="all" style="fill: light-dark(#ffffff, var(--ge-dark-color, #121212)); stroke: light-dark(rgb(0, 0, 0), rgb(255, 255, 255));"/></g><g><g fill="#000000" font-family="&quot;Helvetica&quot;" text-anchor="middle" font-size="13px" style="fill: light-dark(rgb(0, 0, 0), rgb(255, 255, 255));"><text x="37" y="111">Setup</text></g></g></g><g data-cell-id="w8ue0g9CLGxzd9xP0na4-11"><g><path d="M 460 106 L 480 106 L 460 106 L 473.63 106" fill="none" stroke="#000000" stroke-miterlimit="10" pointer-events="stroke" style="stroke: light-dark(rgb(0, 0, 0), rgb(255, 255, 255));"/><path d="M 478.88 106 L 471.88 109.5 L 473.63 106 L 471.88 102.5 Z" fill="#000000" stroke="#000000" stroke-miterlimit="10" pointer-events="all" style="fill: light-dark(rgb(0, 0, 0), rgb(255, 255, 255)); stroke: light-dark(rgb(0, 0, 0), rgb(255, 255, 255));"/></g></g><g data-cell-id="w8ue0g9CLGxzd9xP0na4-3"><g><rect x="360" y="86" width="100" height="40" rx="6" ry="6" fill="#ffffff" stroke="#000000" pointer-events="all" style="fill: light-dark(#ffffff, var(--ge-dark-color, #121212)); stroke: light-dark(rgb(0, 0, 0), rgb(255, 255, 255));"/></g><g><g fill="#000000" font-family="&quot;Helvetica&quot;" text-anchor="middle" font-size="13px" style="fill: light-dark(rgb(0, 0, 0), rgb(255, 255, 255));"><text x="409.5" y="103">Configure Run</text><text x="409.5" y="119">Parameters</text></g></g></g><g data-cell-id="w8ue0g9CLGxzd9xP0na4-9"><g><path d="M 225 106 L 245 106 L 225 106 L 238.63 106" fill="none" stroke="#000000" stroke-miterlimit="10" pointer-events="stroke" style="stroke: light-dark(rgb(0, 0, 0), rgb(255, 255, 255));"/><path d="M 243.88 106 L 236.88 109.5 L 238.63 106 L 236.88 102.5 Z" fill="#000000" stroke="#000000" stroke-miterlimit="10" pointer-events="all" style="fill: light-dark(rgb(0, 0, 0), rgb(255, 255, 255)); stroke: light-dark(rgb(0, 0, 0), rgb(255, 255, 255));"/></g></g><g data-cell-id="w8ue0g9CLGxzd9xP0na4-4"><g><rect x="125" y="86" width="100" height="40" rx="6" ry="6" fill="#ffffff" stroke="#000000" pointer-events="all" style="fill: light-dark(#ffffff, var(--ge-dark-color, #121212)); stroke: light-dark(rgb(0, 0, 0), rgb(255, 255, 255));"/></g><g><g fill="#000000" font-family="&quot;Helvetica&quot;" text-anchor="middle" font-size="13px" style="fill: light-dark(rgb(0, 0, 0), rgb(255, 255, 255));"><text x="174.5" y="103">Configure Build</text><text x="174.5" y="119">Parameters</text></g></g></g><g data-cell-id="w8ue0g9CLGxzd9xP0na4-12"><g><path d="M 555 106 L 575 106 L 560 106 L 573.63 106" fill="none" stroke="#000000" stroke-miterlimit="10" pointer-events="stroke" style="stroke: light-dark(rgb(0, 0, 0), rgb(255, 255, 255));"/><path d="M 578.88 106 L 571.88 109.5 L 573.63 106 L 571.88 102.5 Z" fill="#000000" stroke="#000000" stroke-miterlimit="10" pointer-events="all" style="fill: light-dark(rgb(0, 0, 0), rgb(255, 255, 255)); stroke: light-dark(rgb(0, 0, 0), rgb(255, 255, 255));"/></g></g><g data-cell-id="w8ue0g9CLGxzd9xP0na4-5"><g><rect x="480" y="86" width="75" height="40" rx="6" ry="6" fill="#ffffff" stroke="#000000" pointer-events="all" style="fill: light-dark(#ffffff, var(--ge-dark-color, #121212)); stroke: light-dark(rgb(0, 0, 0), rgb(255, 255, 255));"/></g><g><g fill="#000000" font-family="&quot;Helvetica&quot;" text-anchor="middle" font-size="13px" style="fill: light-dark(rgb(0, 0, 0), rgb(255, 255, 255));"><text x="517" y="111">Run</text></g></g></g><g data-cell-id="w8ue0g9CLGxzd9xP0na4-13"><g><path d="M 680 106 L 718.63 106" fill="none" stroke="#000000" stroke-miterlimit="10" pointer-events="stroke" style="stroke: light-dark(rgb(0, 0, 0), rgb(255, 255, 255));"/><path d="M 723.88 106 L 716.88 109.5 L 718.63 106 L 716.88 102.5 Z" fill="#000000" stroke="#000000" stroke-miterlimit="10" pointer-events="all" style="fill: light-dark(rgb(0, 0, 0), rgb(255, 255, 255)); stroke: light-dark(rgb(0, 0, 0), rgb(255, 255, 255));"/></g></g><g data-cell-id="w8ue0g9CLGxzd9xP0na4-14"><g><path d="M 680 101 L 690 101 Q 700 101 700 91 L 700 51 Q 700 41 690 41 L 110 41 Q 100 41 100 51 L 100 86 Q 100 96 109.32 96 L 118.63 96" fill="none" stroke="#ed0007" stroke-miterlimit="10" stroke-dasharray="1 2" pointer-events="stroke" style="stroke: light-dark(rgb(237, 0, 7), rgb(255, 149, 155));"/><path d="M 123.88 96 L 116.88 99.5 L 118.63 96 L 116.88 92.5 Z" fill="#ed0007" stroke="#ed0007" stroke-miterlimit="10" pointer-events="all" style="fill: light-dark(rgb(237, 0, 7), rgb(255, 149, 155)); stroke: light-dark(rgb(237, 0, 7), rgb(255, 149, 155));"/></g><g><g fill="#ED0007" font-family="&quot;Helvetica&quot;" font-style="italic" text-anchor="middle" font-size="11px" style="fill: light-dark(rgb(237, 0, 7), rgb(255, 149, 155));"><text x="474.5" y="35">Full Loop</text></g></g></g><g data-cell-id="w8ue0g9CLGxzd9xP0na4-16"><g><path d="M 680 96 L 685 96 Q 690 96 690 86 L 690 71 Q 690 61 680 61 L 350 61 Q 340 61 340 71 L 340 86 Q 340 96 346.82 96 L 353.63 96" fill="none" stroke="#007bc0" stroke-miterlimit="10" stroke-dasharray="1 2" pointer-events="stroke" style="stroke: light-dark(rgb(0, 123, 192), rgb(62, 168, 227));"/><path d="M 358.88 96 L 351.88 99.5 L 353.63 96 L 351.88 92.5 Z" fill="#007bc0" stroke="#007bc0" stroke-miterlimit="10" pointer-events="all" style="fill: light-dark(rgb(0, 123, 192), rgb(62, 168, 227)); stroke: light-dark(rgb(0, 123, 192), rgb(62, 168, 227));"/></g><g><g fill="#007BC0" font-family="&quot;Helvetica&quot;" font-style="italic" text-anchor="middle" font-size="11px" style="fill: light-dark(rgb(0, 123, 192), rgb(62, 168, 227));"><text x="514.5" y="55">Fast Loop</text></g></g></g><g data-cell-id="w8ue0g9CLGxzd9xP0na4-6"><g><rect x="580" y="86" width="100" height="40" rx="6" ry="6" fill="#ffffff" stroke="#000000" pointer-events="all" style="fill: light-dark(#ffffff, var(--ge-dark-color, #121212)); stroke: light-dark(rgb(0, 0, 0), rgb(255, 255, 255));"/></g><g><g fill="#000000" font-family="&quot;Helvetica&quot;" text-anchor="middle" font-size="13px" style="fill: light-dark(rgb(0, 0, 0), rgb(255, 255, 255));"><text x="629.5" y="103">Analyze</text><text x="629.5" y="119">Results</text></g></g></g><g data-cell-id="w8ue0g9CLGxzd9xP0na4-7"><g><rect x="725" y="86" width="100" height="40" rx="6" ry="6" fill="#ffffff" stroke="#000000" pointer-events="all" style="fill: light-dark(#ffffff, var(--ge-dark-color, #121212)); stroke: light-dark(rgb(0, 0, 0), rgb(255, 255, 255));"/></g><g><g fill="#000000" font-family="&quot;Helvetica&quot;" text-anchor="middle" font-size="13px" style="fill: light-dark(rgb(0, 0, 0), rgb(255, 255, 255));"><text x="774.5" y="103">Archieve</text><text x="774.5" y="119">Experiment</text></g></g></g><g data-cell-id="w8ue0g9CLGxzd9xP0na4-19"><g><rect x="360" y="0" width="80" height="20" fill="none" stroke="none" pointer-events="all"/></g><g><g fill="#000000" font-family="&quot;Helvetica&quot;" font-weight="bold" text-anchor="middle" font-size="15px" style="fill: light-dark(rgb(0, 0, 0), rgb(255, 255, 255));"><text x="399.5" y="16">Experiment</text></g></g></g></g></g></g></svg>