<?xml version="1.0" encoding="UTF-8" standalone="no"?>
<!DOCTYPE svg PUBLIC "-//W3C//DTD SVG 1.1//EN" "http://www.w3.org/Graphics/SVG/1.1/DTD/svg11.dtd">
<!-- Generiert durch Microsoft Visio, SVG Export sysapi2.svg Zeichenblatt-1 -->
<svg xmlns="http://www.w3.org/2000/svg" xmlns:xlink="http://www.w3.org/1999/xlink" xmlns:ev="http://www.w3.org/2001/xml-events"
		xmlns:v="http://schemas.microsoft.com/visio/2003/SVGExtensions/" width="4.95279in" height="1.82491in"
		viewBox="0 0 356.601 131.394" xml:space="preserve" color-interpolation-filters="sRGB" class="st17">
	<v:documentProperties v:langID="1031" v:metric="true" v:viewMarkup="false"/>

	<style type="text/css">
	<![CDATA[
		.st1 {fill:none;stroke:#000000;stroke-linecap:round;stroke-linejoin:round;stroke-width:1}
		.st2 {fill:#000000;font-family:Bosch Office Sans;font-size:1.00001em;font-weight:bold}
		.st3 {fill:#ffffff;stroke:#7f7f7f;stroke-linecap:round;stroke-linejoin:round;stroke-width:0.5}
		.st4 {fill:#7f7f7f;font-family:Calibri;font-size:0.833336em;font-weight:bold}
		.st5 {marker-end:url(#mrkr4-12);stroke:#7f7f7f;stroke-linecap:round;stroke-linejoin:round;stroke-width:0.75}
		.st6 {fill:#7f7f7f;fill-opacity:1;stroke:#7f7f7f;stroke-opacity:1;stroke-width:0.22935779816514}
		.st7 {fill:none;stroke:none;stroke-linecap:round;stroke-linejoin:round;stroke-width:0.5}
		.st8 {fill:#7f7f7f;font-family:Consolas;font-size:0.666664em}
		.st9 {font-size:1em}
		.st10 {fill:none;stroke:none;stroke-linecap:round;stroke-linejoin:round;stroke-width:0.75}
		.st11 {fill:#7f7f7f;font-family:Calibri;font-size:0.75em}
		.st12 {fill:none;stroke:none;stroke-linecap:round;stroke-linejoin:round;stroke-width:0.24}
		.st13 {fill:#7f7f7f;font-family:Calibri;font-size:0.833336em}
		.st14 {fill:#000000;stroke:none;stroke-linecap:butt;stroke-width:3.1875}
		.st15 {fill:#e4e4e4;stroke:#7f7f7f;stroke-linecap:round;stroke-linejoin:round;stroke-width:0.5}
		.st16 {fill:#71767c;stroke:none;stroke-linecap:butt;stroke-width:3.1875}
		.st17 {fill:none;fill-rule:evenodd;font-size:12px;overflow:visible;stroke-linecap:square;stroke-miterlimit:3}
	]]>
	</style>

	<defs id="Markers">
		<g id="lend4">
			<path d="M 2 1 L 0 0 L 2 -1 L 2 1 " style="stroke:none"/>
		</g>
		<marker id="mrkr4-12" class="st6" v:arrowType="4" v:arrowSize="2" v:setback="8.72" refX="-8.72" orient="auto"
				markerUnits="strokeWidth" overflow="visible">
			<use xlink:href="#lend4" transform="scale(-4.36,-4.36) "/>
		</marker>
	</defs>
	<g v:mID="0" v:index="1" v:groupContext="foregroundPage">
		<title>Zeichenblatt-1</title>
		<v:pageProperties v:drawingScale="0.0393701" v:pageScale="0.0393701" v:drawingUnits="24" v:shadowOffsetX="8.50394"
				v:shadowOffsetY="-8.50394"/>
		<g id="shape92-1" v:mID="92" v:groupContext="shape" transform="translate(228.542,-31.6811)">
			<title>Tabelle.92</title>
			<desc>Compute Back-End</desc>
			<v:textBlock v:margins="rect(4,4,2,4)" v:tabSpace="42.5197" v:verticalAlign="2"/>
			<v:textRect cx="63.7795" cy="86.0394" width="127.56" height="90.7087"/>
			<rect x="0" y="40.685" width="127.559" height="90.7087" class="st1"/>
			<text x="8.44" y="126.39" class="st2" v:langID="1031"><v:paragraph v:spLine="-1" v:horizAlign="1"/><v:tabList/>Compute Back-End</text>		</g>
		<g id="shape94-4" v:mID="94" v:groupContext="shape" transform="translate(235.628,-51.5236)">
			<title>Tabelle.94</title>
			<desc>myExperiment</desc>
			<v:textBlock v:margins="rect(4,4,4,4)" v:tabSpace="42.5197" v:verticalAlign="0"/>
			<v:textRect cx="56.6929" cy="100.213" width="113.39" height="62.3622"/>
			<ellipse cx="56.6929" cy="100.213" rx="56.6929" ry="31.1811" class="st3"/>
			<text x="26.31" y="80.53" class="st4" v:langID="1031"><v:paragraph v:spLine="-1" v:horizAlign="1"/><v:tabList/>myExperiment</text>		</g>
		<g id="shape95-7" v:mID="95" v:groupContext="shape" transform="translate(108.525,-48.6801) rotate(-8.44975)">
			<title>Tabelle.95</title>
			<path d="M0 131.39 L120.78 131.39" class="st5"/>
		</g>
		<g id="shape96-13" v:mID="96" v:groupContext="shape" transform="translate(249.802,-61.4449)">
			<title>Tabelle.96</title>
			<desc>/sysapi/repository/ /sysapi/inputs/</desc>
			<v:textBlock v:margins="rect(4,4,4,4)" v:tabSpace="42.5197"/>
			<v:textRect cx="47.9055" cy="117.22" width="95.82" height="28.3465"/>
			<rect x="0" y="103.047" width="95.811" height="28.3465" rx="8.50394" ry="8.50394" class="st7"/>
			<text x="4" y="112.72" class="st8" v:langID="1031"><v:paragraph v:spLine="-1.5"/><v:tabList/>/sysapi/repository/<v:newlineChar/><tspan
						x="4" dy="1.781em" class="st9">/sysapi/inputs/ </tspan> </text>		</g>
		<g id="shape97-17" v:mID="97" v:groupContext="shape" transform="translate(129.392,-52.0273) rotate(-8.4497)">
			<title>Tabelle.97</title>
			<desc>copy</desc>
			<v:textBlock v:margins="rect(4,4,4,4)" v:tabSpace="42.5197"/>
			<v:textRect cx="19.8425" cy="126.433" width="39.69" height="9.92123"/>
			<rect x="0" y="121.472" width="39.685" height="9.92123" class="st10"/>
			<text x="11.17" y="129.13" class="st11" v:langID="1031"><v:paragraph v:horizAlign="1"/><v:tabList/>copy</text>		</g>
		<g id="shape98-20" v:mID="98" v:groupContext="shape" transform="translate(171.196,-112.728) rotate(11.1577)">
			<title>Tabelle.98</title>
			<desc>run container</desc>
			<v:textBlock v:margins="rect(4,4,4,4)" v:tabSpace="42.5197"/>
			<v:textRect cx="30.5366" cy="126.433" width="61.08" height="9.92126"/>
			<rect x="0" y="121.472" width="61.0732" height="9.92126" class="st10"/>
			<text x="5.71" y="129.13" class="st11" v:langID="1031"><v:paragraph v:horizAlign="1"/><v:tabList/>run container</text>		</g>
		<g id="shape99-23" v:mID="99" v:groupContext="shape" transform="translate(173.179,-112.684) rotate(11.1577)">
			<title>Tabelle.99</title>
			<path d="M0 131.39 L89.13 131.39" class="st5"/>
		</g>
		<g id="shape100-28" v:mID="100" v:groupContext="shape" transform="translate(153.112,-86.4556) rotate(2.26234)">
			<title>Tabelle.100</title>
			<path d="M0 131.39 L98.25 131.39" class="st5"/>
		</g>
		<g id="shape101-33" v:mID="101" v:groupContext="shape" transform="translate(156.832,-85.7989) rotate(2.2623)">
			<title>Tabelle.101</title>
			<desc>mount</desc>
			<v:textBlock v:margins="rect(4,4,4,4)" v:tabSpace="42.5197"/>
			<v:textRect cx="19.8425" cy="126.433" width="39.69" height="9.92123"/>
			<rect x="0" y="121.472" width="39.685" height="9.92123" class="st10"/>
			<text x="7.64" y="129.13" class="st11" v:langID="1031"><v:paragraph v:horizAlign="1"/><v:tabList/>mount</text>		</g>
		<g id="shape126-36" v:mID="126" v:groupContext="shape" transform="translate(85.3922,-21.0512)">
			<title>Gefaltete Ecke.75</title>
			<desc>syscfg.json</desc>
			<v:textBlock v:margins="rect(4,4,4,4)" v:tabSpace="42.5197"/>
			<v:textRect cx="26.9291" cy="126.433" width="53.86" height="9.92126"/>
			<rect x="0" y="121.472" width="53.8583" height="9.92126" class="st12"/>
			<text x="5.08" y="128.93" class="st13" v:langID="1031"><v:paragraph v:spLine="-1" v:horizAlign="1"/><v:tabList/>syscfg.json</text>		</g>
		<g id="group136-39" transform="translate(3.1875,-0.5)" v:mID="136" v:groupContext="group">
			<title>Tabelle.136</title>
			<g id="shape91-40" v:mID="91" v:groupContext="shape" transform="translate(39.685,2.84217E-14)">
				<title>Tabelle.91</title>
				<desc>Runtime Manager</desc>
				<v:textBlock v:margins="rect(4,4,4,4)" v:tabSpace="42.5197" v:verticalAlign="2"/>
				<v:textRect cx="80.7874" cy="66.1968" width="161.58" height="130.394"/>
				<rect x="0" y="0.999998" width="161.575" height="130.394" class="st1"/>
				<text x="30.45" y="124.39" class="st2" v:langID="1031"><v:paragraph v:spLine="-1" v:horizAlign="1"/><v:tabList/>Runtime Manager</text>			</g>
			<g id="shape102-43" v:mID="102" v:groupContext="shape" transform="translate(73.7008,-106.299)">
				<title>Tabelle.102</title>
				<desc>Image B</desc>
				<v:textBlock v:margins="rect(4,4,4,4)" v:tabSpace="42.5197"/>
				<v:textRect cx="35.4331" cy="122.89" width="70.87" height="17.0079"/>
				<rect x="0" y="114.386" width="70.8661" height="17.0079" rx="8.50394" ry="8.50394" class="st3"/>
				<text x="19.09" y="125.39" class="st13" v:langID="1031"><v:paragraph v:spLine="-1" v:horizAlign="1"/><v:tabList/>Image B</text>			</g>
			<g id="shape109-46" v:mID="109" v:groupContext="shape" transform="translate(73.7008,-75.1182)">
				<title>Tabelle.109</title>
				<desc>System 3 Repo</desc>
				<v:textBlock v:margins="rect(4,4,4,4)" v:tabSpace="42.5197"/>
				<v:textRect cx="35.4331" cy="120.055" width="70.87" height="22.6771"/>
				<rect x="0" y="108.717" width="70.8661" height="22.6771" rx="8.50394" ry="8.50394" class="st3"/>
				<text x="5.5" y="122.56" class="st13" v:langID="1031"><v:paragraph v:spLine="-1" v:horizAlign="1"/><v:tabList/>System 3 Repo</text>			</g>
			<g id="group128-49" transform="translate(-1.9984E-14,-38.2677)" v:mID="128" v:groupContext="group">
				<title>Tabelle.128</title>
				<g id="shape129-50" v:mID="129" v:groupContext="shape">
					<title>Tabelle.129</title>
					<path d="M13.85 121.01 C16.37 120.07 18.14 117.79 18.14 115.09 C18.14 111.57 15.1 108.72 11.34 108.72 C7.58 108.72
								 4.54 111.57 4.54 115.09 C4.54 117.79 6.31 120.07 8.83 121.01 C3.72 122.06 0 126.24 0 131.39 L1.51
								 131.39 C1.51 126.22 5.82 122.18 11.34 122.18 C16.86 122.18 21.17 126.22 21.17 131.39 L22.68 131.39
								 C22.68 126.24 18.95 122.06 13.85 121.01 ZM6.05 115.09 C6.05 112.37 8.43 110.13 11.34 110.13 C14.25
								 110.13 16.63 112.37 16.63 115.09 C16.63 117.82 14.25 120.06 11.34 120.06 C8.43 120.06 6.05 117.82
								 6.05 115.09 Z" class="st14"/>
				</g>
			</g>
		</g>
		<g id="group137-52" transform="translate(27.282,-32.0752)" v:mID="137" v:groupContext="group">
			<title>Tabelle.137</title>
			<g id="group127-53" transform="translate(69.5284,0)" v:mID="127" v:groupContext="group">
				<title>Tabelle.127</title>
				<g id="group110-54" transform="translate(0,226.725) scale(1,-1)" v:mID="110" v:groupContext="group">
					<v:userDefs>
						<v:ud v:nameU="ControlDistFromCorner" v:prompt="" v:val="VT0(0.33406619583616):24"/>
						<v:ud v:nameU="AngToControl" v:prompt="" v:val="VT0(0.78539816339745):32"/>
						<v:ud v:nameU="XFoldLength" v:prompt="" v:val="VT0(0.23622047244094):24"/>
						<v:ud v:nameU="YFoldLength" v:prompt="" v:val="VT0(0.23622047244094):24"/>
						<v:ud v:nameU="visVersion" v:prompt="" v:val="VT0(15):26"/>
						<v:ud v:nameU="ControlDistFromCorner" v:prompt="" v:val="VT0(0.10983624458813):1"/>
						<v:ud v:nameU="AngToControl" v:prompt="" v:val="VT0(0.62547751191758):32"/>
						<v:ud v:nameU="XFoldLength" v:prompt="" v:val="VT0(0.093799454830076):1"/>
						<v:ud v:nameU="YFoldLength" v:prompt="" v:val="VT0(0.067742976231373):1"/>
					</v:userDefs>
					<title>Gefaltete Ecke</title>
					<g id="shape110-55" v:mID="110" v:groupContext="groupContent">
						<path d="M0 131.39 L24.27 131.39 L31.02 126.52 L31.02 95.33 L0 95.33 L0 131.39 Z" class="st3"/>
					</g>
					<g id="shape111-57" v:mID="111" v:groupContext="shape" transform="translate(24.2684,0)">
						<title>Tabelle.111</title>
						<v:userDefs>
							<v:ud v:nameU="ControlX" v:prompt="" v:val="VT0(0.94488188976378):24"/>
							<v:ud v:nameU="ControlY" v:prompt="" v:val="VT0(0.23622047244094):24"/>
							<v:ud v:nameU="XFoldLength" v:prompt="" v:val="VT0(0.23622047244094):24"/>
							<v:ud v:nameU="YFoldLength" v:prompt="" v:val="VT0(0.23622047244094):24"/>
							<v:ud v:nameU="FillForegnd" v:prompt="" v:val="VT0(1):26"/>
							<v:ud v:nameU="ControlX" v:prompt="" v:val="VT0(0.36655246178552):1"/>
							<v:ud v:nameU="ControlY" v:prompt="" v:val="VT0(0.089042446142465):1"/>
							<v:ud v:nameU="XFoldLength" v:prompt="" v:val="VT0(0.093799454830076):1"/>
							<v:ud v:nameU="YFoldLength" v:prompt="" v:val="VT0(0.067742976231373):1"/>
						</v:userDefs>
						<path d="M0 131.39 L6.75 126.52 L2.12 124.98 L0 131.39 Z" class="st15"/>
					</g>
				</g>
				<g id="group104-59" transform="translate(7.71568,-10.2358)" v:mID="104" v:groupContext="group">
					<title>Tabelle.104</title>
					<g id="shape105-60" v:mID="105" v:groupContext="shape">
						<title>Tabelle.105</title>
						<path d="M7.8 126.77 C6.05 126.77 4.63 125.36 4.63 123.61 C4.63 121.87 6.05 120.45 7.8 120.45 C9.54 120.45
									 10.96 121.87 10.96 123.61 C10.96 125.36 9.54 126.77 7.8 126.77 ZM7.8 121.23 C6.48 121.23 5.41
									 122.3 5.41 123.61 C5.41 124.93 6.48 126 7.8 126 C9.11 126 10.18 124.93 10.18 123.61 C10.18 122.3
									 9.11 121.23 7.8 121.23 ZM7.8 131.39 C7.39 131.39 6.97 131.36 6.56 131.3 L6.31 131.26 L5.86 129.53
									 C5.56 129.43 5.26 129.31 4.97 129.16 L3.43 130.06 L3.22 129.91 C2.55 129.43 1.97 128.84 1.48
									 128.18 L1.33 127.97 L2.24 126.43 C2.09 126.15 1.96 125.85 1.86 125.54 L0.14 125.09 L0.1 124.84
									 C0.03 124.43 0 124.02 0 123.61 C0 123.21 0.03 122.79 0.1 122.39 L0.14 122.14 L1.87 121.68 C1.97
									 121.38 2.09 121.08 2.24 120.79 L1.33 119.26 L1.48 119.05 C1.97 118.38 2.55 117.8 3.22 117.32
									 L3.43 117.17 L4.97 118.07 C5.26 117.92 5.56 117.79 5.87 117.7 L6.31 115.97 L6.56 115.93 C7.38
									 115.8 8.21 115.8 9.03 115.93 L9.28 115.97 L9.73 117.7 C10.03 117.8 10.33 117.92 10.62 118.07
									 L12.16 117.17 L12.37 117.32 C13.04 117.8 13.62 118.38 14.11 119.05 L14.26 119.26 L13.36 120.79
									 C13.5 121.08 13.63 121.38 13.73 121.69 L15.45 122.13 L15.49 122.39 C15.56 122.79 15.59 123.21
									 15.59 123.61 C15.59 124.02 15.56 124.43 15.49 124.84 L15.45 125.09 L13.73 125.54 C13.63 125.85
									 13.5 126.15 13.36 126.43 L14.26 127.97 L14.11 128.18 C13.62 128.84 13.04 129.43 12.37 129.91
									 L12.16 130.06 L10.62 129.16 C10.33 129.31 10.03 129.43 9.73 129.53 L9.28 131.26 L9.03 131.3
									 C8.62 131.36 8.2 131.39 7.8 131.39 ZM6.94 130.56 C7.51 130.63 8.08 130.63 8.65 130.56 L9.08
									 128.91 L9.3 128.85 C9.69 128.74 10.08 128.58 10.44 128.38 L10.63 128.27 L12.11 129.13 C12.56
									 128.78 12.97 128.37 13.32 127.92 L12.46 126.45 L12.57 126.25 C12.77 125.89 12.93 125.51 13.04
									 125.12 L13.1 124.9 L14.76 124.47 C14.79 124.19 14.81 123.9 14.81 123.61 C14.81 123.33 14.79
									 123.04 14.76 122.76 L13.1 122.33 L13.04 122.12 C12.93 121.72 12.77 121.34 12.57 120.97 L12.46
									 120.78 L13.32 119.31 C12.97 118.86 12.56 118.45 12.11 118.1 L10.63 118.96 L10.44 118.85 C10.08
									 118.65 9.7 118.49 9.3 118.38 L9.09 118.32 L8.65 116.67 C8.08 116.6 7.51 116.6 6.94 116.67 L6.51
									 118.32 L6.29 118.38 C5.9 118.49 5.51 118.65 5.15 118.85 L4.96 118.96 L3.48 118.1 C3.03 118.45
									 2.62 118.86 2.27 119.31 L3.13 120.78 L3.02 120.97 C2.82 121.34 2.66 121.72 2.55 122.11 L2.49
									 122.33 L0.83 122.76 C0.8 123.04 0.78 123.33 0.78 123.61 C0.78 123.9 0.8 124.18 0.83 124.47 L2.49
									 124.9 L2.55 125.11 C2.66 125.51 2.82 125.89 3.02 126.25 L3.13 126.45 L2.27 127.92 C2.62 128.37
									 3.03 128.78 3.48 129.13 L4.96 128.27 L5.15 128.38 C5.51 128.58 5.9 128.74 6.29 128.85 L6.5 128.91
									 L6.94 130.56 Z" class="st16"/>
					</g>
				</g>
			</g>
			<g id="shape130-62" v:mID="130" v:groupContext="shape" transform="translate(-1.97813E-12,-18.0311)">
				<title>Tabelle.130</title>
				<path d="M0 131.39 L62.99 131.39" class="st5"/>
			</g>
			<g id="shape131-67" v:mID="131" v:groupContext="shape" transform="translate(12.7559,-18.0311)">
				<title>Tabelle.131</title>
				<desc>configure</desc>
				<v:textBlock v:margins="rect(4,4,4,4)" v:tabSpace="42.5197"/>
				<v:textRect cx="24.8031" cy="126.433" width="49.61" height="9.92126"/>
				<rect x="0" y="121.472" width="49.6063" height="9.92126" class="st10"/>
				<text x="5.54" y="129.43" class="st13" v:langID="1031"><v:paragraph v:horizAlign="1"/><v:tabList/>configure</text>			</g>
		</g>
	</g>
</svg>
